<?xml version="1.0" standalone="no"?>
<!DOCTYPE svg PUBLIC "-//W3C//DTD SVG 20010904//EN"
 "http://www.w3.org/TR/2001/REC-SVG-20010904/DTD/svg10.dtd">
<svg version="1.0" xmlns="http://www.w3.org/2000/svg"
 width="100.000000pt" height="100.000000pt" viewBox="0 0 100.000000 100.000000"
 preserveAspectRatio="xMidYMid meet">

<g transform="translate(0.000000,100.000000) scale(0.100000,-0.100000)"
fill="#ffffff" stroke="none">
<path d="M130 875 l0 -125 23 9 c12 5 99 41 194 80 l172 71 126 0 125 0 0
-175 0 -175 -320 0 -320 0 0 -280 0 -280 370 0 370 0 0 50 0 50 -320 0 -320 0
0 180 0 180 320 0 320 0 0 270 0 270 -370 0 -370 0 0 -125z"/>
</g>
</svg>
