<?xml version="1.0" standalone="no"?>
<!DOCTYPE svg PUBLIC "-//W3C//DTD SVG 20010904//EN"
 "http://www.w3.org/TR/2001/REC-SVG-20010904/DTD/svg10.dtd">
<svg version="1.0" xmlns="http://www.w3.org/2000/svg"
 width="100.000000pt" height="100.000000pt" viewBox="0 0 100.000000 100.000000"
 preserveAspectRatio="xMidYMid meet">

<g transform="translate(0.000000,100.000000) scale(0.100000,-0.100000)"
fill="#ffffff" stroke="none">
<path d="M80 950 l0 -50 360 0 360 0 0 -165 0 -165 -360 0 -360 0 0 -49 0 -49
159 -118 c158 -119 158 -119 236 -237 l78 -117 159 0 160 0 -108 83 c-60 46
-199 150 -308 233 l-199 149 321 3 322 2 0 265 0 265 -410 0 -410 0 0 -50z"/>
</g>
</svg>
